<svg xmlns="http://www.w3.org/2000/svg" xmlns:xlink="http://www.w3.org/1999/xlink" width="46" height="27" viewBox="0 0 46 27">
  <defs>
    <clipPath id="clip-path">
      <rect id="Rectangle_7" data-name="Rectangle 7" width="46" height="27" transform="translate(-0.126 -0.24)" fill="#fff"/>
    </clipPath>
  </defs>
  <g id="Group_2" data-name="Group 2" transform="translate(0.126 0.24)">
    <g id="Group_1" data-name="Group 1" clip-path="url(#clip-path)">
      <path id="Path_1" data-name="Path 1" d="M0,13.368a1.915,1.915,0,0,0,1.911,1.911H39.349l-8.206,8.206a1.911,1.911,0,0,0,2.7,2.7L45.314,14.719a1.9,1.9,0,0,0,.56-1.344v-.008a1.906,1.906,0,0,0-.149-.732,2.048,2.048,0,0,0-.411-.619L33.846.548a1.911,1.911,0,0,0-2.7,2.7l8.206,8.206H1.911A1.915,1.915,0,0,0,0,13.368" transform="translate(0 0.012)" fill="#fff"/>
    </g>
  </g>
</svg>
