<svg id="Group_153" data-name="Group 153" xmlns="http://www.w3.org/2000/svg" xmlns:xlink="http://www.w3.org/1999/xlink" width="16.108" height="15.773" viewBox="0 0 16.108 15.773">
  <defs>
    <clipPath id="clip-path">
      <rect id="Rectangle_141" data-name="Rectangle 141" width="16.108" height="15.773" fill="none"/>
    </clipPath>
  </defs>
  <g id="Group_152" data-name="Group 152" clip-path="url(#clip-path)">
    <path id="Path_70" data-name="Path 70" d="M16.022,13.584a1.457,1.457,0,0,0,.087-.428V2.114c0-.087-.029-.139-.087-.158a.819.819,0,0,0-.212-.026h-5.4v1H12V4.5H10.411V5H12V6.581H10.411V7.1H12V8.589H10.411v.6H12v1.5H10.411v.6H12v1.5H10.411v1.1h5.4c.084-.026.154-.126.212-.3m-.912-.8H12.519v-1.5H15.11Zm0-2.1H12.519v-1.5H15.11Zm0-2.095H12.519V7.1H15.11Zm0-2.008H12.519V5.005H15.11Zm0-2.087H12.519V2.926H15.11ZM9.5,0,0,1.681V14.134l9.5,1.638ZM5.635,11.1q-.055-.145-.509-1.248c-.3-.734-.485-1.159-.538-1.282H4.572l-1.02,2.42L2.189,10.9,3.807,7.886,2.326,4.874,3.715,4.8l.918,2.357h.019L5.69,4.7,7.123,4.6,5.414,7.863,7.176,11.19Z" fill="#217345"/>
  </g>
</svg>
