<svg width="20" height="18" viewBox="0 0 20 18" fill="none" xmlns="http://www.w3.org/2000/svg">
<path fill-rule="evenodd" clip-rule="evenodd" d="M18.2803 1.28033C18.5732 0.987437 18.5732 0.512563 18.2803 0.21967C17.9874 -0.0732233 17.5126 -0.0732233 17.2197 0.21967L1.21967 16.2197C0.926777 16.5126 0.926777 16.9874 1.21967 17.2803C1.51256 17.5732 1.98744 17.5732 2.28033 17.2803L5.12723 14.4334C6.49353 15.0766 8.06719 15.5 9.75 15.5C12.434 15.5 14.8403 14.4229 16.5706 13.095C17.4374 12.4297 18.1532 11.6876 18.6589 10.9589C19.1506 10.2503 19.5 9.4727 19.5 8.75C19.5 8.0273 19.1506 7.24971 18.6589 6.54115C18.1532 5.81244 17.4374 5.07028 16.5706 4.40503C16.3085 4.20385 16.0308 4.00842 15.739 3.82163L18.2803 1.28033ZM14.6495 4.91113L12.8787 6.68196C13.2713 7.27478 13.5 7.98569 13.5 8.75C13.5 10.8211 11.8211 12.5 9.75 12.5C8.98569 12.5 8.27478 12.2713 7.68196 11.8787L6.26524 13.2954C7.33077 13.7295 8.51212 14 9.75 14C12.0365 14 14.1302 13.0771 15.6573 11.905C16.4192 11.3203 17.0214 10.6874 17.4266 10.1036C17.8457 9.49971 18 9.0273 18 8.75C18 8.4727 17.8457 8.00029 17.4266 7.39635C17.0214 6.81256 16.4192 6.17972 15.6573 5.59497C15.3441 5.35461 15.0071 5.12472 14.6495 4.91113ZM8.77994 10.7807C9.07366 10.9213 9.40264 11 9.75 11C10.9926 11 12 9.99264 12 8.75C12 8.40264 11.9213 8.07366 11.7807 7.77994L8.77994 10.7807Z" fill="#C4C4C4"/>
<path d="M9.75 2C10.7823 2 11.7736 2.15934 12.7011 2.43101C12.8796 2.48328 12.9327 2.70662 12.8013 2.8381L11.9767 3.66265C11.9148 3.72451 11.8252 3.74928 11.74 3.72967C11.1006 3.58257 10.4339 3.5 9.75 3.5C7.46345 3.5 5.36978 4.42292 3.84267 5.59497C3.08078 6.17972 2.47857 6.81256 2.07343 7.39635C1.65431 8.00029 1.5 8.4727 1.5 8.75C1.5 9.0273 1.65431 9.49971 2.07343 10.1036C2.42725 10.6135 2.93138 11.1607 3.56091 11.6807C3.67677 11.7764 3.68781 11.9515 3.58156 12.0578L2.87265 12.7667C2.78234 12.857 2.63823 12.8649 2.54037 12.7829C1.84739 12.2017 1.26902 11.5755 0.841103 10.9589C0.349371 10.2503 0 9.4727 0 8.75C0 8.0273 0.349371 7.24971 0.841103 6.54115C1.34681 5.81244 2.06262 5.07028 2.92941 4.40503C4.65965 3.07708 7.06598 2 9.75 2Z" fill="#C4C4C4"/>
<path d="M9.75 5C9.86847 5 9.98566 5.00549 10.1013 5.01624C10.2982 5.03453 10.3694 5.26991 10.2296 5.4097L9.01739 6.62196C8.36408 6.84683 7.84683 7.36408 7.62196 8.01739L6.4097 9.22965C6.26991 9.36945 6.03453 9.29818 6.01624 9.10132C6.00549 8.98566 6 8.86847 6 8.75C6 6.67893 7.67893 5 9.75 5Z" fill="#C4C4C4"/>
</svg>
