<svg width="26" height="26" viewBox="0 0 26 26" fill="none" xmlns="http://www.w3.org/2000/svg">
<path d="M18.1389 6H5.11111C4.08325 6 3.25 6.83325 3.25 7.86111V20.8889C3.25 21.9168 4.08325 22.75 5.11111 22.75H18.1389C19.1668 22.75 20 21.9168 20 20.8889V7.86111C20 6.83325 19.1668 6 18.1389 6Z" stroke="#102A6C" stroke-width="1.5" stroke-linecap="round" stroke-linejoin="round"/>
<path d="M8.36751 12.5143C9.13841 12.5143 9.76335 11.8894 9.76335 11.1185C9.76335 10.3476 9.13841 9.72266 8.36751 9.72266C7.59662 9.72266 6.97168 10.3476 6.97168 11.1185C6.97168 11.8894 7.59662 12.5143 8.36751 12.5143Z" stroke="#102A6C" stroke-width="1.5" stroke-linecap="round" stroke-linejoin="round"/>
<path d="M20.0002 17.1665L15.3474 12.5137L5.11133 22.7498" stroke="#102A6C" stroke-width="1.5" stroke-linecap="round" stroke-linejoin="round"/>
</svg>
