<?xml version="1.0" standalone="no"?>
<!DOCTYPE svg PUBLIC "-//W3C//DTD SVG 20010904//EN"
 "http://www.w3.org/TR/2001/REC-SVG-20010904/DTD/svg10.dtd">
<svg version="1.0" xmlns="http://www.w3.org/2000/svg"
 width="750.000000pt" height="528.000000pt" viewBox="0 0 750.000000 528.000000"
 preserveAspectRatio="xMidYMid meet">

<g transform="translate(0.000000,528.000000) scale(0.100000,-0.100000)"
fill="#000000" stroke="none">
<path d="M140 2645 l0 -2420 3605 0 3605 0 0 2420 0 2420 -3605 0 -3605 0 0
-2420z m7170 5 l0 -2380 -3570 0 -3570 0 0 2373 c0 1306 3 2377 7 2380 3 4
1610 7 3570 7 l3563 0 0 -2380z"/>
<path d="M3505 4054 c-449 -80 -835 -367 -1039 -773 -55 -108 -112 -290 -132
-416 -20 -134 -15 -388 11 -505 61 -274 181 -501 368 -697 205 -214 467 -357
767 -420 120 -25 411 -25 530 0 293 62 536 192 740 397 205 205 336 448 397
740 25 118 25 409 0 533 -59 291 -184 525 -396 738 -221 222 -478 354 -786
404 -113 19 -353 18 -460 -1z"/>
</g>
</svg>
