<svg id="Group_150" data-name="Group 150" xmlns="http://www.w3.org/2000/svg" xmlns:xlink="http://www.w3.org/1999/xlink" width="16.109" height="21.535" viewBox="0 0 16.109 21.535">
  <defs>
    <clipPath id="clip-path">
      <rect id="Rectangle_139" data-name="Rectangle 139" width="16.108" height="21.535" fill="#f70202"/>
    </clipPath>
  </defs>
  <g id="Group_149" data-name="Group 149" clip-path="url(#clip-path)">
    <path id="Path_64" data-name="Path 64" d="M15.88,19.783H.228A.228.228,0,0,1,0,19.555V.228A.228.228,0,0,1,.228,0H15.88a.228.228,0,0,1,.228.228V19.555a.228.228,0,0,1-.228.228M.457,19.326h15.2V.457H.457Z" transform="translate(0 0)" fill="#f70202"/>
    <path id="Path_65" data-name="Path 65" d="M41.391,40.128H29.408a.764.764,0,0,1-.76-.765v-4.2a.764.764,0,0,1,.76-.765H41.391a.763.763,0,0,1,.76.765v4.2a.764.764,0,0,1-.76.765m-11.983-5.27a.307.307,0,0,0-.3.309v4.2a.307.307,0,0,0,.3.309H41.391a.307.307,0,0,0,.3-.309v-4.2a.307.307,0,0,0-.3-.309Z" transform="translate(-27.346 -32.838)" fill="#f70202"/>
    <path id="Path_66" data-name="Path 66" d="M88.468,71.741H87.91v-.49h.558Zm1.117-1.013v1.013h-.558V68.949h1.1a1.087,1.087,0,0,1,.751.242.906.906,0,0,1,0,1.3,1.087,1.087,0,0,1-.751.242Zm0-.436h.545a.466.466,0,0,0,.352-.779.448.448,0,0,0-.352-.134h-.545Zm1.981,1.45V68.949h.95a1.111,1.111,0,0,1,1.163,1.161v.464a1.12,1.12,0,0,1-1.163,1.168Zm.552-2.363v1.933h.366a.571.571,0,0,0,.472-.208.791.791,0,0,0,.166-.53V70.11a.815.815,0,0,0-.166-.53.587.587,0,0,0-.472-.2Zm3.709,1.2H94.669v1.161h-.558V68.949h1.914v.43H94.669v.772h1.156v.43Z" transform="translate(-83.913 -65.814)" fill="#f70202"/>
    <path id="Path_67" data-name="Path 67" d="M49.812,445.179H37.556a.228.228,0,1,1,0-.457H49.812a.228.228,0,1,1,0,.457" transform="translate(-35.626 -424.503)" fill="#f70202"/>
    <path id="Path_68" data-name="Path 68" d="M71.561,464.082H61.478a.228.228,0,1,1,0-.457H71.561a.228.228,0,1,1,0,.457" transform="translate(-58.465 -442.547)" fill="#f70202"/>
    <path id="Path_69" data-name="Path 69" d="M107.671,199.918a5.864,5.864,0,0,0-1.077.114,10.229,10.229,0,0,1-1.622-2.444c.425-1.819.213-2.074.12-2.2s-.246-.342-.405-.342a1.941,1.941,0,0,0-.326.053.653.653,0,0,0-.365.4,3.229,3.229,0,0,0,.405,2.148,22.18,22.18,0,0,1-1.209,3.471c-1.21.557-1.854,1.108-1.914,1.638a.79.79,0,0,0,.359.725.492.492,0,0,0,.306.1c.279,0,.565-.215.89-.678a8.71,8.71,0,0,0,.764-1.376,14.99,14.99,0,0,1,2.818-.906,2.116,2.116,0,0,0,1.349.738.848.848,0,0,0,.711-.389.663.663,0,0,0,.126-.7c-.126-.242-.425-.356-.93-.356m-5.722,3.121c-.146-.114-.14-.195-.14-.222.02-.181.3-.5.984-.886-.518.967-.8,1.094-.844,1.108m2.625-7.4c.013-.007.332.356.027,1.04a.784.784,0,0,1-.027-1.04m-.665,5.176a22.149,22.149,0,0,0,.858-2.444,10.911,10.911,0,0,0,1.223,1.792,15.908,15.908,0,0,0-2.081.651m4.127-.154a.471.471,0,0,1-.385.141c-.173,0-.233-.1-.5-.3a4.763,4.763,0,0,1,.578-.033c.286,0,.339.04.379.06a.461.461,0,0,1-.073.134" transform="translate(-96.669 -186.183)" fill="#f70202"/>
  </g>
</svg>
