<svg id="Group_6" data-name="Group 6" xmlns="http://www.w3.org/2000/svg" xmlns:xlink="http://www.w3.org/1999/xlink" width="26" height="26" viewBox="0 0 26 26">
  <defs>
    <clipPath id="clip-path">
      <rect id="Rectangle_9" data-name="Rectangle 9" width="26" height="26" fill="#fff"/>
    </clipPath>
  </defs>
  <g id="Group_5" data-name="Group 5" clip-path="url(#clip-path)">
    <path id="Path_3" data-name="Path 3" d="M8.5,8A3.25,3.25,0,1,0,5.25,4.75,3.251,3.251,0,0,0,8.5,8m0-2.167A1.083,1.083,0,1,1,9.583,4.75,1.081,1.081,0,0,1,8.5,5.833M2,11.792A2.707,2.707,0,0,1,4.708,9.083h7.583A2.707,2.707,0,0,1,15,11.792v.542a3.782,3.782,0,0,1-1.491,2.944,7.8,7.8,0,0,1-5.018,1.389,7.8,7.8,0,0,1-5.009-1.4A3.8,3.8,0,0,1,2,12.333Zm2.708-.542a.545.545,0,0,0-.542.542v.542a1.641,1.641,0,0,0,.676,1.244,5.694,5.694,0,0,0,3.649.923,5.8,5.8,0,0,0,3.666-.906,1.635,1.635,0,0,0,.676-1.261v-.542a.545.545,0,0,0-.542-.542Z" transform="translate(2.333 1.75)" fill="#fff"/>
    <path id="Path_4" data-name="Path 4" d="M5.417,0A5.421,5.421,0,0,0,0,5.417V16.25a5.421,5.421,0,0,0,5.417,5.417H16.25a5.421,5.421,0,0,0,5.417-5.417V5.417A5.421,5.421,0,0,0,16.25,0ZM16.25,2.167a3.251,3.251,0,0,1,3.25,3.25V16.25a3.251,3.251,0,0,1-3.25,3.25H5.417a3.251,3.251,0,0,1-3.25-3.25V5.417a3.251,3.251,0,0,1,3.25-3.25Z" fill="#fff"/>
    <path id="Path_5" data-name="Path 5" d="M2.5,20.917a5.43,5.43,0,0,0,4.333,2.167h6.5a9.754,9.754,0,0,0,9.75-9.75v-6.5A5.43,5.43,0,0,0,20.917,2.5V13.333a7.581,7.581,0,0,1-7.583,7.583Z" transform="translate(2.917 2.917)" fill="#fff"/>
  </g>
</svg>
