<svg width="16" height="19" viewBox="0 0 16 19" fill="none" xmlns="http://www.w3.org/2000/svg">
<path d="M8 0.78125C12.0076 0.78125 15.25 4.00592 15.25 8.01172C15.25 9.82252 14.5764 11.4661 13.4766 12.7383C13.1895 13.1074 13.4766 12.7383 13.1895 13.1074L9.52148 17.2617C9.22852 17.6348 9.52148 17.2617 9.22852 17.6348L8.02148 18.9902L6.83203 17.6367L6.54297 17.2617L2.98243 13.2383C2.97303 13.2281 2.9633 13.2183 2.95313 13.209C2.93545 13.192 2.91154 13.1658 2.87891 13.1328C1.56697 11.8204 0.75 10.0139 0.75 8.01172C0.75 4.00582 3.99241 0.78125 8 0.78125ZM8.002 4.49023C6.06046 4.49023 4.47661 6.07403 4.47661 8.01562C4.47661 9.95712 6.06046 11.543 8.002 11.543C9.94354 11.543 11.5293 9.95712 11.5293 8.01562C11.5293 6.07403 9.94354 4.49023 8.002 4.49023ZM8.002 5.49023C9.4031 5.49023 10.5293 6.61442 10.5293 8.01562C10.5293 9.41673 9.4031 10.543 8.002 10.543C6.6009 10.543 5.47661 9.41673 5.47661 8.01562C5.47661 6.61442 6.6009 5.49023 8.002 5.49023Z" fill="#58D10D"/>
</svg>
