<svg width="20" height="22" viewBox="0 0 20 22" fill="none" xmlns="http://www.w3.org/2000/svg">
<path d="M0.500481 7.9L9.50048 13.1C9.70048 13.2 9.80048 13.2 10.0005 13.2C10.2005 13.2 10.3005 13.2 10.5005 13.1L19.5005 7.9C19.7005 7.8 19.8005 7.7 19.9005 7.5C20.1005 7 20.0005 6.4 19.5005 6.1L10.5005 0.9C10.2005 0.7 9.80048 0.7 9.50048 0.9L0.500481 6.1C0.300481 6.2 0.200481 6.3 0.100481 6.5C-0.0995192 7 0.00048086 7.6 0.500481 7.9ZM19.5005 10.1L19.3005 10L10.5005 15.1C10.2005 15.3 9.80048 15.3 9.50048 15.1L0.700481 10L0.500481 10.1C0.00048086 10.4 -0.0995192 11 0.100481 11.5C0.200481 11.7 0.300481 11.8 0.500481 11.9L9.50048 17.1C9.80048 17.3 10.2005 17.3 10.5005 17.1L19.5005 11.9C20.0005 11.6 20.1005 11 19.9005 10.5C19.8005 10.3 19.7005 10.2 19.5005 10.1ZM19.5005 14.1L19.3005 14L10.5005 19.1C10.2005 19.3 9.80048 19.3 9.50048 19.1L0.700481 14L0.500481 14.1C0.00048086 14.4 -0.0995192 15 0.100481 15.5C0.200481 15.7 0.300481 15.8 0.500481 15.9L9.50048 21.1C9.80048 21.3 10.2005 21.3 10.5005 21.1L19.5005 15.9C20.0005 15.6 20.1005 15 19.9005 14.5C19.8005 14.3 19.7005 14.2 19.5005 14.1Z" fill="#EC54B8"/>
</svg>
