<svg width="24" height="24" viewBox="0 0 24 24" fill="none" xmlns="http://www.w3.org/2000/svg">
<path d="M12 11.1075L21.585 4.95C21.1997 4.66096 20.7317 4.50323 20.25 4.5H3.75004C3.26834 4.50323 2.8004 4.66096 2.41504 4.95L12 11.1075Z" fill="#2DC4CB"/>
<path d="M12.405 12.6303L12.2775 12.6903H12.2175C12.1484 12.7212 12.0751 12.7414 12 12.7503V12.7503C11.9377 12.7582 11.8748 12.7582 11.8125 12.7503H11.7525L11.625 12.6903L1.575 6.19531C1.52698 6.37647 1.50179 6.56291 1.5 6.75031V17.2503C1.5 17.847 1.73705 18.4193 2.15901 18.8413C2.58097 19.2633 3.15326 19.5003 3.75 19.5003H20.25C20.8467 19.5003 21.419 19.2633 21.841 18.8413C22.2629 18.4193 22.5 17.847 22.5 17.2503V6.75031C22.4982 6.56291 22.473 6.37647 22.425 6.19531L12.405 12.6303Z" fill="#2DC4CB"/>
</svg>
