<svg id="Group_169" data-name="Group 169" xmlns="http://www.w3.org/2000/svg" xmlns:xlink="http://www.w3.org/1999/xlink" width="32.503" height="25.152" viewBox="0 0 32.503 25.152">
  <defs>
    <clipPath id="clip-path">
      <rect id="Rectangle_161" data-name="Rectangle 161" width="32.503" height="25.152" fill="#fff"/>
    </clipPath>
  </defs>
  <g id="Group_168" data-name="Group 168" clip-path="url(#clip-path)">
    <path id="Path_75" data-name="Path 75" d="M16.72,12.9a7.277,7.277,0,0,0,2.514-5.5,7.4,7.4,0,0,0-14.8,0,7.277,7.277,0,0,0,2.514,5.5A11.846,11.846,0,0,0,0,23.672a1.48,1.48,0,1,0,2.959,0,8.877,8.877,0,1,1,17.754,0,1.48,1.48,0,0,0,2.959,0A11.846,11.846,0,0,0,16.72,12.9m-4.884-1.064A4.439,4.439,0,1,1,16.275,7.4a4.44,4.44,0,0,1-4.439,4.439m14.407.473A7.4,7.4,0,0,0,20.713,0a1.48,1.48,0,0,0,0,2.959,4.431,4.431,0,0,1,2.219,8.27,1.477,1.477,0,0,0-.075,2.514l.578.388.191.1a10.353,10.353,0,0,1,5.918,9.438,1.48,1.48,0,0,0,2.959,0,13.3,13.3,0,0,0-6.26-11.363" fill="#fff"/>
  </g>
</svg>
