<svg xmlns="http://www.w3.org/2000/svg" xmlns:xlink="http://www.w3.org/1999/xlink" width="118.779" height="80" viewBox="0 0 118.779 80">
  <defs>
    <clipPath id="clip-path">
      <path id="path16" d="M0-756.039H118.779v80H0Z" transform="translate(0 756.039)"/>
    </clipPath>
  </defs>
  <g id="g10" transform="translate(0 756.039)">
    <g id="g12" transform="translate(0 -756.039)">
      <g id="g14" transform="translate(0 0)" clip-path="url(#clip-path)">
        <g id="g20" transform="translate(16.132 0.012)">
          <path id="path22" d="M-449.236-235.035l-.01.007.027,0Zm37.613-21.6c-.117,1.532-2.3,2.258-4.705,2.258a46.441,46.441,0,0,1-10.307-1.7l-.337-.091.295-.188a18.261,18.261,0,0,1,9.292-2.671h.106c3.32,0,5.778.821,5.658,2.39m-19.019,1.439c-6.32,4.616-11.7,11.628-15.279,16.793l-.786,1.094-.571.782a12.238,12.238,0,0,0-6.149,2.689c-.181.177-.662.708-.361.826.12.118.481-.177.722-.413a8.877,8.877,0,0,1,4.8-1.81c-1.277,1.633-2.678,3.271-4.2,4.953-.376.371-.884.917-.884.917C-460.472-222-469.4-216.1-481.783-216.048a31.425,31.425,0,0,1-8.118-1.014,15.141,15.141,0,0,1-3.886-1.5c-4.453-2.281-6.97-5.569-6.97-10.881,0-8.5,9.31-15.408,20.176-16.631a11.842,11.842,0,0,0,8.21,10.13,3.609,3.609,0,0,0,1.272.32c.175.006.314-.01.387-.2a9.656,9.656,0,0,1-1.141-.362c-5.562-2.385-7.348-6.458-7.321-10.045.58-.033,1.162-.05,1.743-.05l.8,0,1,.046c7.3.31,14.686,2.958,14.686,8.524a6.9,6.9,0,0,1-.529,2.681,6.2,6.2,0,0,1-.436.894c-2.484,4.383-9.222,7.477-16.024,8.057a11.75,11.75,0,0,1-1.3.072l-.537-.012h-.424c-3.544,0-7.247-.712-9.119-3.225a3.727,3.727,0,0,1-.867-1.663c-.075-.216-.143-.444-.211-.7-.132-.7-.088-1.054-.22-1.142-.308,0-.264.747-.176,1.274a6.283,6.283,0,0,0,.527,1.677l.395.647c1.89,2.726,6.2,4.055,10.107,4.1h.494c7.912,0,16.242-3.829,18.588-9.5l.159-.4a8.08,8.08,0,0,0,.483-2.725c0-5.7-6.755-9.187-13.963-9.978l-.967-.088c-.747-.044-1.495-.088-2.2-.088q-.943,0-1.885.059c.034-.228.076-.451.123-.671,1.933-8.052,10.723-11.445,20.792-11.445,5.627,0,13.58,1.486,17.816,2.438,3.7.848,6.667,1.587,9.1,2.117l.388.084Zm19.771-1.366c.289-2.023-2.641-3.107-6.41-3.107a27.532,27.532,0,0,0-11.684,2.959c-3.6-.953-7.3-2.013-10.8-2.964-6.56-1.8-13.531-3.172-17.954-3.172-13.2-.1-21.773,6.014-22.817,13.734a13.522,13.522,0,0,0-.114,1.5c-11.294,1.282-21.751,8.631-21.751,18.13,0,6.094,3.384,10.3,8.834,12.567l.572.185a29.93,29.93,0,0,0,10.506,1.71c.072,0,.143,0,.215-.005.045,0,.088.005.134.005,12.747.043,22.5-5.315,30.367-12.79l.8-.709a79.509,79.509,0,0,0,6.113-6.809l.633.013,4.084.123c3.787.06,8.6-.118,10.581-1.741.177-.174,1.357-1.583.482-.847-2.587,1.989-6.017,1.334-9.985,1.093l-4.084-.123-.894.01.321-.414.786-1.109c.791-1.06,1.588-2.159,2.334-3.264,2.615-3.737,6.621-9.366,11.487-13.312l.635.121a71.2,71.2,0,0,0,11.725,1.049c3.5,0,5.686-1.169,5.88-2.829" transform="translate(502.397 262.848)" fill="#866d4b"/>
        </g>
        <g id="g24" transform="translate(0.001 42.296)">
          <path id="path26" d="M-714.1-125.555v3.28h-13.2v-17.9h13.019v3.282h-8.557v3.753h8.163v3.282h-8.163v4.3Zm8.4-11.339v4.068h2.362c1.233,0,2.441-.525,2.441-2.047,0-1.339-.867-2.02-2.546-2.02Zm-4.464-3.282h8.007c3.675,0,5.854,2.467,5.854,5.145a4.633,4.633,0,0,1-3.072,4.383c1.838.92,2.388,3.125,4.909,8.374h-4.909c-1.915-3.832-2.624-7.271-5.039-7.271h-1.285v7.271h-4.464Zm-76.1,0v3.282h-7.875v3.989h7.875v3.282h-7.875v7.349h-4.462v-17.9Zm4.556,0h8.005c3.675,0,5.853,2.467,5.853,5.145a4.632,4.632,0,0,1-3.07,4.383c1.836.92,2.388,3.125,4.908,8.374h-4.908c-1.916-3.832-2.624-7.271-5.041-7.271h-1.286v7.271h-4.462Zm4.462,3.282v4.068h2.363c1.232,0,2.44-.525,2.44-2.047,0-1.339-.865-2.02-2.545-2.02Zm24.035-3.282,7.952,17.9h-4.8l-1.47-3.544h-8.007l-1.338,3.544h-4.724l7.218-17.9Zm.367,11.235-2.888-6.956-2.623,6.956Zm21.407-10.08v3.492c-2.6-1.154-4.147-1.6-5.67-1.6-1.6,0-2.624.577-2.624,1.47,0,2.7,9.108,1.942,9.108,8.188,0,3.44-2.888,5.435-6.878,5.435a12.13,12.13,0,0,1-6.456-1.734v-3.858c2.573,1.707,4.148,2.31,6.116,2.31,1.706,0,2.624-.6,2.624-1.654,0-2.938-9.107-1.863-9.107-8.293,0-3.1,2.677-5.145,6.823-5.145a14.668,14.668,0,0,1,6.064,1.391m50.8,0v3.492c-2.6-1.154-4.149-1.6-5.672-1.6-1.6,0-2.623.577-2.623,1.47,0,2.7,9.107,1.942,9.107,8.188,0,3.44-2.887,5.435-6.876,5.435a12.129,12.129,0,0,1-6.457-1.734v-3.858c2.572,1.707,4.147,2.31,6.115,2.31,1.707,0,2.626-.6,2.626-1.654,0-2.938-9.11-1.863-9.11-8.293,0-3.1,2.677-5.145,6.826-5.145a14.673,14.673,0,0,1,6.064,1.391" transform="translate(798.609 140.413)" fill="#271100"/>
        </g>
        <g id="g28" transform="translate(0.036 68.911)">
          <path id="path30" d="M-64.8,0h1.557V10.875H-64.8V6.142h-6.111v4.733h-1.557V0h1.557V4.7H-64.8Z" transform="translate(72.464)" fill="#271100"/>
        </g>
        <g id="g32" transform="translate(13.774 68.755)">
          <path id="path34" d="M-49.7-12.5a4.221,4.221,0,0,0-3.068,1.168,3.978,3.978,0,0,0-1.2,2.981,3.9,3.9,0,0,0,1.206,2.927,4.163,4.163,0,0,0,3.018,1.168,4.169,4.169,0,0,0,3.037-1.191A3.981,3.981,0,0,0-45.491-8.41a3.889,3.889,0,0,0-1.217-2.908A4.133,4.133,0,0,0-49.7-12.5m-.062-1.479a5.847,5.847,0,0,1,4.2,1.6,5.294,5.294,0,0,1,1.677,4A5.209,5.209,0,0,1-45.58-4.4a6.015,6.015,0,0,1-4.267,1.576,5.672,5.672,0,0,1-4.1-1.576A5.255,5.255,0,0,1-55.58-8.348a5.373,5.373,0,0,1,1.649-4.032,5.753,5.753,0,0,1,4.17-1.6" transform="translate(55.58 13.976)" fill="#271100"/>
        </g>
        <g id="g36" transform="translate(29.435 68.77)">
          <path id="path38" d="M-27.366-54.577l-1.183-.719a5.377,5.377,0,0,1-1.584-1.338,2.535,2.535,0,0,1-.471-1.514,2.675,2.675,0,0,1,.891-2.086,3.332,3.332,0,0,1,2.316-.8,4.381,4.381,0,0,1,2.5.765V-58.5a3.6,3.6,0,0,0-2.53-1.131,2.093,2.093,0,0,0-1.253.353,1.07,1.07,0,0,0-.49.9,1.392,1.392,0,0,0,.361.915,4.545,4.545,0,0,0,1.162.9l1.189.7a3.484,3.484,0,0,1,1.99,3.025,2.774,2.774,0,0,1-.876,2.125,3.2,3.2,0,0,1-2.277.817,4.782,4.782,0,0,1-2.935-.991v-1.977a3.664,3.664,0,0,0,2.919,1.6,1.834,1.834,0,0,0,1.218-.407,1.276,1.276,0,0,0,.486-1.02q0-.993-1.432-1.884" transform="translate(30.604 61.036)" fill="#271100"/>
        </g>
        <g id="g40" transform="translate(39.794 68.895)">
          <path id="path42" d="M-26.839-11.71H-28.45v3.4h1.7a2.159,2.159,0,0,0,1.463-.448,1.606,1.606,0,0,0,.514-1.28q0-1.674-2.071-1.674m-3.176,9.5V-13.1h3.449a3.554,3.554,0,0,1,2.483.841A2.9,2.9,0,0,1-23.156-10a3.02,3.02,0,0,1-.475,1.681,2.716,2.716,0,0,1-1.3,1.062,6.617,6.617,0,0,1-2.366.331H-28.45v4.717Z" transform="translate(30.015 13.096)" fill="#271100"/>
        </g>
        <path id="path44" d="M478.395-104.8h1.557v10.875h-1.557Z" transform="translate(-427.774 173.71)" fill="#271100"/>
        <g id="g46" transform="translate(56.263 68.895)">
          <path id="path48" d="M0,0H9.084V1.386H5.293v9.5H3.729v-9.5H0Z" fill="#271100"/>
        </g>
        <g id="g50" transform="translate(66.623 68.848)">
          <path id="path52" d="M-58.8-53.479l-1.755-3.939-1.627,3.939Zm-2.287-6.329h1.094l4.876,10.937h-1.593l-1.45-3.223H-62.8l-1.359,3.223h-1.6Z" transform="translate(65.76 59.808)" fill="#271100"/>
        </g>
        <g id="g54" transform="translate(81.054 68.911)">
          <path id="path56" d="M0,0H1.557V9.458h4.9v1.417H0Z" fill="#271100"/>
        </g>
        <path id="path58" d="M864.566-104.8h1.557v10.875h-1.557Z" transform="translate(-773.082 173.71)" fill="#271100"/>
        <g id="g60" transform="translate(97.126 68.895)">
          <path id="path62" d="M0,0H9.084V1.386H5.294v9.5H3.729v-9.5H0Z" fill="#271100"/>
        </g>
        <g id="g64" transform="translate(109.082 68.911)">
          <path id="path66" d="M-65.4,0h1.89l-4.017,5.122v5.753h-1.6V5.122L-73.14,0h1.879l2.91,3.749Z" transform="translate(73.14)" fill="#271100"/>
        </g>
      </g>
    </g>
  </g>
</svg>
