<svg width="16" height="16" viewBox="0 0 16 16" fill="none" xmlns="http://www.w3.org/2000/svg">
<path d="M14 9.3335C13.8232 9.3335 13.6537 9.40373 13.5286 9.52876C13.4036 9.65378 13.3334 9.82335 13.3334 10.0002V12.6668C13.3334 12.8436 13.2631 13.0132 13.1381 13.1382C13.0131 13.2633 12.8435 13.3335 12.6667 13.3335H3.33337C3.15656 13.3335 2.98699 13.2633 2.86197 13.1382C2.73695 13.0132 2.66671 12.8436 2.66671 12.6668V10.0002C2.66671 9.82335 2.59647 9.65378 2.47145 9.52876C2.34642 9.40373 2.17685 9.3335 2.00004 9.3335C1.82323 9.3335 1.65366 9.40373 1.52864 9.52876C1.40361 9.65378 1.33337 9.82335 1.33337 10.0002V12.6668C1.33337 13.1973 1.54409 13.706 1.91916 14.081C2.29423 14.4561 2.80294 14.6668 3.33337 14.6668H12.6667C13.1971 14.6668 13.7058 14.4561 14.0809 14.081C14.456 13.706 14.6667 13.1973 14.6667 12.6668V10.0002C14.6667 9.82335 14.5965 9.65378 14.4714 9.52876C14.3464 9.40373 14.1769 9.3335 14 9.3335ZM7.52671 10.4735C7.59011 10.5342 7.66487 10.5818 7.74671 10.6135C7.82651 10.6488 7.91279 10.667 8.00004 10.667C8.08729 10.667 8.17357 10.6488 8.25337 10.6135C8.33521 10.5818 8.40997 10.5342 8.47337 10.4735L11.14 7.80683C11.2656 7.68129 11.3361 7.51103 11.3361 7.3335C11.3361 7.15596 11.2656 6.9857 11.14 6.86016C11.0145 6.73463 10.8442 6.6641 10.6667 6.6641C10.4892 6.6641 10.3189 6.73463 10.1934 6.86016L8.66671 8.3935V2.00016C8.66671 1.82335 8.59647 1.65378 8.47145 1.52876C8.34642 1.40373 8.17685 1.3335 8.00004 1.3335C7.82323 1.3335 7.65366 1.40373 7.52864 1.52876C7.40361 1.65378 7.33337 1.82335 7.33337 2.00016V8.3935L5.80671 6.86016C5.74455 6.798 5.67076 6.7487 5.58954 6.71506C5.50833 6.68142 5.42128 6.6641 5.33337 6.6641C5.24547 6.6641 5.15842 6.68142 5.07721 6.71506C4.99599 6.7487 4.9222 6.798 4.86004 6.86016C4.79788 6.92232 4.74857 6.99612 4.71493 7.07733C4.68129 7.15854 4.66398 7.24559 4.66398 7.3335C4.66398 7.4214 4.68129 7.50845 4.71493 7.58966C4.74857 7.67088 4.79788 7.74467 4.86004 7.80683L7.52671 10.4735Z" fill="white"/>
</svg>
