<svg width="16" height="16" viewBox="0 0 16 16" fill="none" xmlns="http://www.w3.org/2000/svg">
<path d="M2.75002 3.56745V12.5675L1.78252 11.5925C1.64129 11.4512 1.44974 11.3719 1.25002 11.3719C1.05029 11.3719 0.858745 11.4512 0.717517 11.5925C0.576289 11.7337 0.496948 11.9252 0.496948 12.125C0.496948 12.3247 0.576289 12.5162 0.717517 12.6575L2.96752 14.9075C3.03724 14.9777 3.12019 15.0335 3.21158 15.0716C3.30298 15.1097 3.40101 15.1293 3.50002 15.1293C3.59903 15.1293 3.69706 15.1097 3.78845 15.0716C3.87984 15.0335 3.96279 14.9777 4.03252 14.9075L6.28252 12.6575C6.35281 12.5877 6.40861 12.5048 6.44669 12.4134C6.48476 12.322 6.50437 12.224 6.50437 12.125C6.50437 12.0259 6.48476 11.9279 6.44669 11.8365C6.40861 11.7451 6.35281 11.6622 6.28252 11.5925C6.21279 11.5222 6.12984 11.4664 6.03845 11.4283C5.94706 11.3902 5.84903 11.3706 5.75002 11.3706C5.65101 11.3706 5.55298 11.3902 5.46158 11.4283C5.37019 11.4664 5.28724 11.5222 5.21752 11.5925L4.25002 12.5675V3.56745C4.24703 3.4138 4.27435 3.26106 4.33041 3.11797C4.38647 2.97488 4.47017 2.84423 4.57673 2.73349C4.68329 2.62275 4.81062 2.53409 4.95146 2.47257C5.09229 2.41105 5.24386 2.37788 5.39752 2.37495H7.25002C7.44893 2.37495 7.63969 2.29594 7.78035 2.15528C7.921 2.01463 8.00002 1.82387 8.00002 1.62495C8.00002 1.42604 7.921 1.23528 7.78035 1.09462C7.63969 0.953972 7.44893 0.874954 7.25002 0.874954H5.39752C5.04688 0.877897 4.70026 0.949875 4.37745 1.08678C4.05464 1.22369 3.76195 1.42284 3.5161 1.67286C3.27026 1.92289 3.07607 2.21889 2.94462 2.54396C2.81318 2.86904 2.74705 3.21682 2.75002 3.56745ZM9.71752 3.34245C9.57629 3.48368 9.49695 3.67523 9.49695 3.87495C9.49695 4.07468 9.57629 4.26623 9.71752 4.40745C9.85874 4.54868 10.0503 4.62802 10.25 4.62802C10.4497 4.62802 10.6413 4.54868 10.7825 4.40745L11.75 3.43245V12.4325C11.753 12.5861 11.7257 12.7388 11.6696 12.8819C11.6136 13.025 11.5299 13.1557 11.4233 13.2664C11.3167 13.3772 11.1894 13.4658 11.0486 13.5273C10.9077 13.5889 10.7562 13.622 10.6025 13.625H8.75002C8.5511 13.625 8.36034 13.704 8.21969 13.8446C8.07903 13.9853 8.00002 14.176 8.00002 14.375C8.00002 14.5739 8.07903 14.7646 8.21969 14.9053C8.36034 15.0459 8.5511 15.125 8.75002 15.125H10.6025C10.9531 15.122 11.2998 15.05 11.6226 14.9131C11.9454 14.7762 12.2381 14.5771 12.4839 14.327C12.7298 14.077 12.924 13.781 13.0554 13.4559C13.1869 13.1309 13.253 12.7831 13.25 12.4325V3.43245L14.2175 4.40745C14.2872 4.47775 14.3702 4.53355 14.4616 4.57162C14.553 4.6097 14.651 4.6293 14.75 4.6293C14.849 4.6293 14.9471 4.6097 15.0384 4.57162C15.1298 4.53355 15.2128 4.47775 15.2825 4.40745C15.3528 4.33773 15.4086 4.25478 15.4467 4.16339C15.4848 4.07199 15.5044 3.97396 15.5044 3.87495C15.5044 3.77595 15.4848 3.67792 15.4467 3.58652C15.4086 3.49513 15.3528 3.41218 15.2825 3.34245L13.0325 1.09245C12.9628 1.02216 12.8798 0.966362 12.7884 0.928286C12.6971 0.890209 12.599 0.870605 12.5 0.870605C12.401 0.870605 12.303 0.890209 12.2116 0.928286C12.1202 0.966362 12.0372 1.02216 11.9675 1.09245L9.71752 3.34245Z" fill="#E8971D"/>
</svg>
