<svg width="17" height="20" viewBox="0 0 17 20" fill="none" xmlns="http://www.w3.org/2000/svg">
<path d="M16.0003 18.0008H2.0003C1.73508 18.0008 1.48073 18.1062 1.29319 18.2937C1.10565 18.4813 1.0003 18.7356 1.0003 19.0008C1.0003 19.2661 1.10565 19.5204 1.29319 19.7079C1.48073 19.8955 1.73508 20.0008 2.0003 20.0008H16.0003C16.2655 20.0008 16.5199 19.8955 16.7074 19.7079C16.8949 19.5204 17.0003 19.2661 17.0003 19.0008C17.0003 18.7356 16.8949 18.4813 16.7074 18.2937C16.5199 18.1062 16.2655 18.0008 16.0003 18.0008ZM2.0003 16.0008H2.0903L6.2603 15.6208C6.71709 15.5753 7.14433 15.3741 7.4703 15.0508L16.4703 6.05083C16.8196 5.6818 17.0084 5.18934 16.9953 4.68137C16.9822 4.1734 16.7682 3.69134 16.4003 3.34083L13.6603 0.600835C13.3027 0.26493 12.8341 0.0721933 12.3436 0.0592865C11.8532 0.0463797 11.3751 0.214204 11.0003 0.530835L2.0003 9.53083C1.67706 9.8568 1.4758 10.284 1.4303 10.7408L1.0003 14.9108C0.986826 15.0573 1.00583 15.2049 1.05596 15.3432C1.10608 15.4815 1.1861 15.607 1.2903 15.7108C1.38374 15.8035 1.49455 15.8768 1.61639 15.9266C1.73823 15.9764 1.86869 16.0016 2.0003 16.0008ZM12.2703 2.00083L15.0003 4.73083L13.0003 6.68083L10.3203 4.00083L12.2703 2.00083ZM3.3703 10.9108L9.0003 5.32083L11.7003 8.02083L6.1003 13.6208L3.1003 13.9008L3.3703 10.9108Z" fill="#229A16"/>
</svg>
