<svg width="22" height="20" viewBox="0 0 22 20" fill="none" xmlns="http://www.w3.org/2000/svg">
<path d="M4.00019 4.08994V16.0899L2.71019 14.7899C2.52188 14.6016 2.26649 14.4958 2.00019 14.4958C1.73388 14.4958 1.47849 14.6016 1.29019 14.7899C1.10188 14.9782 0.996094 15.2336 0.996094 15.4999C0.996094 15.7662 1.10188 16.0216 1.29019 16.2099L4.29019 19.2099C4.38315 19.3037 4.49375 19.3781 4.61561 19.4288C4.73747 19.4796 4.86817 19.5057 5.00019 19.5057C5.1322 19.5057 5.2629 19.4796 5.38476 19.4288C5.50662 19.3781 5.61722 19.3037 5.71019 19.2099L8.71019 16.2099C8.80391 16.117 8.87831 16.0064 8.92908 15.8845C8.97985 15.7627 9.00598 15.632 9.00598 15.4999C9.00598 15.3679 8.97985 15.2372 8.92908 15.1154C8.87831 14.9935 8.80391 14.8829 8.71019 14.7899C8.61722 14.6962 8.50662 14.6218 8.38476 14.571C8.2629 14.5203 8.1322 14.4941 8.00019 14.4941C7.86817 14.4941 7.73747 14.5203 7.61561 14.571C7.49375 14.6218 7.38315 14.6962 7.29019 14.7899L6.00019 16.0899V4.08994C5.99621 3.88507 6.03263 3.68142 6.10737 3.49063C6.18212 3.29983 6.29372 3.12564 6.4358 2.97798C6.57788 2.83033 6.74766 2.71212 6.93544 2.63009C7.12321 2.54807 7.32531 2.50384 7.53019 2.49994H10.0002C10.2654 2.49994 10.5198 2.39458 10.7073 2.20705C10.8948 2.01951 11.0002 1.76516 11.0002 1.49994C11.0002 1.23472 10.8948 0.980368 10.7073 0.792832C10.5198 0.605296 10.2654 0.499939 10.0002 0.499939H7.53019C7.06267 0.503862 6.60052 0.599834 6.1701 0.782375C5.73968 0.964915 5.34943 1.23045 5.02163 1.56382C4.69384 1.89718 4.43492 2.29185 4.25966 2.72528C4.0844 3.15872 3.99623 3.62243 4.00019 4.08994ZM13.2902 3.78994C13.1019 3.97824 12.9961 4.23364 12.9961 4.49994C12.9961 4.76624 13.1019 5.02164 13.2902 5.20994C13.4785 5.39824 13.7339 5.50403 14.0002 5.50403C14.2665 5.50403 14.5219 5.39824 14.7102 5.20994L16.0002 3.90994V15.9099C16.0042 16.1148 15.9677 16.3185 15.893 16.5093C15.8183 16.7 15.7067 16.8742 15.5646 17.0219C15.4225 17.1695 15.2527 17.2878 15.0649 17.3698C14.8772 17.4518 14.6751 17.496 14.4702 17.4999H12.0002C11.735 17.4999 11.4806 17.6053 11.2931 17.7928C11.1055 17.9804 11.0002 18.2347 11.0002 18.4999C11.0002 18.7652 11.1055 19.0195 11.2931 19.207C11.4806 19.3946 11.735 19.4999 12.0002 19.4999H14.4702C14.9377 19.496 15.3999 19.4 15.8303 19.2175C16.2607 19.035 16.6509 18.7694 16.9787 18.4361C17.3065 18.1027 17.5655 17.708 17.7407 17.2746C17.916 16.8412 18.0041 16.3774 18.0002 15.9099V3.90994L19.2902 5.20994C19.3831 5.30367 19.4937 5.37806 19.6156 5.42883C19.7375 5.4796 19.8682 5.50574 20.0002 5.50574C20.1322 5.50574 20.2629 5.4796 20.3848 5.42883C20.5066 5.37806 20.6172 5.30367 20.7102 5.20994C20.8039 5.11698 20.8783 5.00637 20.9291 4.88452C20.9798 4.76266 21.006 4.63195 21.006 4.49994C21.006 4.36793 20.9798 4.23722 20.9291 4.11536C20.8783 3.9935 20.8039 3.8829 20.7102 3.78994L17.7102 0.789939C17.6172 0.696211 17.5066 0.621816 17.3848 0.571048C17.2629 0.520279 17.1322 0.494141 17.0002 0.494141C16.8682 0.494141 16.7375 0.520279 16.6156 0.571048C16.4937 0.621816 16.3831 0.696211 16.2902 0.789939L13.2902 3.78994Z" fill="#E8971D"/>
</svg>
