<svg width="15" height="15" viewBox="0 0 15 15" fill="none" xmlns="http://www.w3.org/2000/svg">
<path d="M5.16893 4.45707L6.79102 2.8279V9.62082C6.79102 9.80868 6.86564 9.98884 6.99848 10.1217C7.13132 10.2545 7.31149 10.3292 7.49935 10.3292C7.68721 10.3292 7.86738 10.2545 8.00022 10.1217C8.13305 9.98884 8.20768 9.80868 8.20768 9.62082V2.8279L9.82977 4.45707C9.89561 4.52346 9.97396 4.57615 10.0603 4.61211C10.1466 4.64808 10.2392 4.66659 10.3327 4.66659C10.4262 4.66659 10.5188 4.64808 10.6051 4.61211C10.6914 4.57615 10.7697 4.52346 10.8356 4.45707C10.902 4.39122 10.9547 4.31288 10.9906 4.22656C11.0266 4.14024 11.0451 4.04766 11.0451 3.95415C11.0451 3.86064 11.0266 3.76806 10.9906 3.68174C10.9547 3.59542 10.902 3.51708 10.8356 3.45123L8.00227 0.6179C7.9349 0.553413 7.85546 0.502863 7.76852 0.46915C7.59606 0.398304 7.40263 0.398304 7.23018 0.46915C7.14323 0.502863 7.0638 0.553413 6.99643 0.6179L4.1631 3.45123C4.09706 3.51728 4.04467 3.59568 4.00892 3.68197C3.97318 3.76826 3.95478 3.86075 3.95478 3.95415C3.95478 4.04755 3.97318 4.14004 4.00892 4.22633C4.04467 4.31262 4.09706 4.39102 4.1631 4.45707C4.22914 4.52311 4.30755 4.5755 4.39384 4.61124C4.48013 4.64699 4.57262 4.66538 4.66602 4.66538C4.75942 4.66538 4.8519 4.64699 4.93819 4.61124C5.02448 4.5755 5.10289 4.52311 5.16893 4.45707ZM13.8743 8.91248C13.6865 8.91248 13.5063 8.98711 13.3735 9.11995C13.2406 9.25279 13.166 9.43295 13.166 9.62082V12.4542C13.166 12.642 13.0914 12.8222 12.9586 12.955C12.8257 13.0879 12.6455 13.1625 12.4577 13.1625H2.54102C2.35315 13.1625 2.17299 13.0879 2.04015 12.955C1.90731 12.8222 1.83268 12.642 1.83268 12.4542V9.62082C1.83268 9.43295 1.75805 9.25279 1.62522 9.11995C1.49238 8.98711 1.31221 8.91248 1.12435 8.91248C0.936487 8.91248 0.75632 8.98711 0.623482 9.11995C0.490643 9.25279 0.416016 9.43295 0.416016 9.62082V12.4542C0.416016 13.0177 0.639899 13.5582 1.03841 13.9568C1.43693 14.3553 1.97743 14.5792 2.54102 14.5792H12.4577C13.0213 14.5792 13.5618 14.3553 13.9603 13.9568C14.3588 13.5582 14.5827 13.0177 14.5827 12.4542V9.62082C14.5827 9.43295 14.5081 9.25279 14.3752 9.11995C14.2424 8.98711 14.0622 8.91248 13.8743 8.91248Z" fill="#102A6C"/>
</svg>
