<svg width="694" height="820" viewBox="0 0 694 820" fill="none" xmlns="http://www.w3.org/2000/svg">
<g clip-path="url(#clip0_506_2345)">
<rect x="0.000244141" width="693.491" height="820" fill="#1A58F6"/>
<g opacity="0.03" clip-path="url(#clip1_506_2345)">
<path d="M584.959 -60.7947V115.764H389.655C389.655 18.3036 477.151 -60.7947 584.959 -60.7947Z" fill="white"/>
<path d="M292.502 325.388V501.947H97.1977C97.1977 404.486 184.694 325.388 292.502 325.388Z" fill="white"/>
<path d="M283.534 7.42456V183.983H88.2295C88.2295 86.5228 175.726 7.42456 283.534 7.42456Z" fill="white"/>
<path d="M292.502 449.808V626.367H487.806C487.806 528.907 400.31 449.808 292.502 449.808Z" fill="white"/>
<path d="M235.704 698.649V875.208H431.008C431.008 777.748 343.512 698.649 235.704 698.649Z" fill="#E8E8E8"/>
<path d="M478.838 169.369V345.928C371.03 345.928 283.534 266.829 283.534 169.369H478.838Z" fill="#66BFE6"/>
<path d="M212.785 610.766V787.324C104.977 787.324 17.4812 708.226 17.4812 610.766H212.785Z" fill="#E8E8E8"/>
<path d="M674.142 389.573V566.132C566.334 566.132 478.838 487.033 478.838 389.573H674.142Z" fill="white"/>
<path d="M-2.44727 184.181V360.739C105.361 360.739 192.857 281.641 192.857 184.181H-2.44727Z" fill="#E8E8E8"/>
<path d="M528.66 169.172C636.468 169.172 723.964 248.27 723.964 345.73H528.66V169.172Z" fill="#E8E8E8"/>
<path d="M528.66 609.778C636.468 609.778 723.964 688.876 723.964 786.337H528.66V609.778Z" fill="#66BFE6"/>
<path d="M95.9039 367.874V533.067H-69.014C-69.014 441.88 4.86921 367.874 95.9039 367.874Z" fill="#66BFE6"/>
</g>
</g>
<defs>
<clipPath id="clip0_506_2345">
<rect width="693.491" height="820" rx="18.4685" fill="white"/>
</clipPath>
<clipPath id="clip1_506_2345">
<rect width="781.216" height="882.793" fill="white" transform="translate(-57.252 -7.38745)"/>
</clipPath>
</defs>
</svg>
