<svg width="301" height="301" viewBox="0 0 301 301" fill="none" xmlns="http://www.w3.org/2000/svg">
<g opacity="0.5">
<path d="M238.292 37.625H62.7083C48.8552 37.625 37.625 48.8552 37.625 62.7083V238.292C37.625 252.145 48.8552 263.375 62.7083 263.375H238.292C252.145 263.375 263.375 252.145 263.375 238.292V62.7083C263.375 48.8552 252.145 37.625 238.292 37.625Z" stroke="#C4C4C4" stroke-width="9.975" stroke-linecap="round" stroke-linejoin="round"/>
<path d="M106.605 125.417C116.995 125.417 125.417 116.994 125.417 106.604C125.417 96.2142 116.995 87.7916 106.605 87.7916C96.2151 87.7916 87.7925 96.2142 87.7925 106.604C87.7925 116.994 96.2151 125.417 106.605 125.417Z" stroke="#C4C4C4" stroke-width="9.975" stroke-linecap="round" stroke-linejoin="round"/>
<path d="M263.374 188.125L200.666 125.417L62.7075 263.375" stroke="#C4C4C4" stroke-width="9.975" stroke-linecap="round" stroke-linejoin="round"/>
</g>
</svg>
